Coordinates
version=1
nRows=20
nColumns=34
inDegrees=yes

Units are S.I. units (second, meters, Newtons, ...)
If the header above contains a line with 'inDegrees', this indicates whether rotational values are in degrees (yes) or radians (no).

endheader
time	pelvis_tilt	pelvis_list	pelvis_rotation	pelvis_tx	pelvis_ty	pelvis_tz	hip_flexion_r	hip_adduction_r	hip_rotation_r	knee_angle_r	ankle_angle_r	subtalar_angle_r	mtp_angle_r	hip_flexion_l	hip_adduction_l	hip_rotation_l	knee_angle_l	ankle_angle_l	subtalar_angle_l	mtp_angle_l	lumbar_extension	lumbar_bending	lumbar_rotation	arm_flex_r	arm_add_r	arm_rot_r	elbow_flex_r	pro_sup_r	arm_flex_l	arm_add_l	arm_rot_l	elbow_flex_l	pro_sup_l
     14.10000000	     28.02582956	    -11.11330417	     -0.01829187	     -0.09777813	      0.43888013	     -0.11311936	     66.34061883	      7.02572244	      0.15412058	     48.86087978	     49.54420412	     32.71360550	      0.00000000	     64.82329968	     -1.36229859	      6.04155679	     37.87759434	     -9.84105222	    -17.95917397	      0.00000000	    -43.60994068	      7.18111203	     20.44408205	     85.50123861	    -15.21811513	     55.61894979	     52.75930368	     74.13469326	     23.86768330	    -29.60681233	     36.56564926	     58.67536786	     59.87544697
     14.11666670	     28.24889121	    -11.08418000	     -1.04303895	     -0.09498173	      0.43502794	     -0.11717593	     66.20762007	      7.62724687	      0.15503872	     48.70260291	     48.10631694	     30.86127220	      0.00000000	     64.58934549	     -2.00910485	      5.87468266	     37.67899545	     -9.89268663	    -18.22575436	      0.00000000	    -43.54406422	      6.75941788	     20.51776944	     89.65806217	    -16.06334144	     56.21868593	     51.81805504	     75.73565202	     28.32908376	    -29.12453255	     38.04578017	     58.23269554	     62.06265091
     14.13333330	     28.05769117	    -10.99161199	     -1.57647371	     -0.08952077	      0.44208709	     -0.11590872	     65.82750832	      7.83395313	      0.38333421	     48.07052788	     47.38056310	     31.15928217	      0.00000000	     64.46271538	     -2.20423912	      5.70059159	     37.68346375	     -9.89581012	    -18.28170869	      0.00000000	    -43.37499031	      6.46822619	     18.43090066	     92.47005812	    -14.79256125	     55.60549681	     52.61465115	     75.97483511	     31.30542590	    -29.34057531	     37.67370507	     57.25499233	     62.34751975
     14.15000000	     27.81590575	    -10.64433665	     -1.97958889	     -0.08670880	      0.44705612	     -0.11422694	     65.60753717	      7.80595043	      0.37490212	     48.10989486	     47.07326536	     30.96549581	      0.00000000	     64.38794878	     -2.28001355	      5.38059750	     37.90874233	     -9.81237070	    -18.56858224	      0.00000000	    -42.78965408	      5.99693327	     16.90799497	     95.22358091	    -13.72230809	     55.06209749	     52.76623344	     76.33065095	     33.63766025	    -29.22217818	     37.25087809	     56.30763540	     62.74710876
     14.16666670	     27.39238866	    -10.65230045	     -2.06984037	     -0.08050786	      0.44574510	     -0.11695317	     66.09498761	      7.60602470	      0.10506558	     48.79140929	     47.28377686	     31.31721467	      0.00000000	     65.00048439	     -2.18347656	      5.49306735	     38.89527337	     -9.44259449	    -19.19050862	      0.00000000	    -42.11441853	      6.23165574	     15.19156087	     98.87898138	    -11.87437490	     55.17894207	     50.68181928	     80.00201605	     35.77838144	    -29.20603232	     36.47154571	     55.09868437	     66.86361029
     14.18333330	     26.83433786	    -10.20667140	     -2.53514232	     -0.08705615	      0.44818301	     -0.11784222	     66.57962017	      7.43395776	      0.10629922	     48.93322506	     47.05239768	     32.36418262	      0.00000000	     65.21842729	     -2.16258177	      5.19026142	     38.90304352	     -9.47788656	    -19.88342354	      0.00000000	    -41.60641691	      5.60135084	     13.53017780	    101.51437372	    -10.67787237	     54.23994025	     50.78680742	     80.36323239	     37.71948435	    -29.30821916	     35.11552437	     54.74035232	     67.25725438
     14.20000000	     26.13268706	    -10.07603741	     -3.41451413	     -0.07677236	      0.44336979	     -0.11393531	     67.74901729	      7.55511221	     -0.70563009	     49.52530527	     48.18105034	     32.38301039	      0.00000000	     66.16573998	     -2.58275046	      5.43832663	     39.35636800	     -9.46658203	    -20.63052176	      0.00000000	    -41.06198557	      5.44830601	     11.81433284	    105.25009632	     -7.73791194	     54.50319819	     48.78246161	     82.69972518	     37.64813216	    -30.21458971	     31.18388224	     56.79021680	     69.86903600
     14.21666670	     25.50156252	    -10.03333986	     -3.81827980	     -0.08004131	      0.44334257	     -0.11280300	     68.90094272	      7.54985730	     -1.06214218	     50.40928844	     46.37761627	     29.40502051	      0.00000000	     67.16201812	     -2.80585194	      5.50534812	     40.20849216	     -9.09619464	    -20.34830257	      0.00000000	    -40.69926045	      5.28486563	     10.38678943	    108.60311342	     -6.76020427	     54.36898252	     49.90203499	     83.18461356	     39.66371315	    -31.04801722	     30.33438786	     57.51740451	     70.48690894
     14.23333330	     25.00095450	    -10.00239443	     -3.92890791	     -0.07568709	      0.44040550	     -0.11197895	     69.83789358	      7.35639946	     -1.55664813	     51.01138741	     47.06244185	     29.85857685	      0.00000000	     68.27628191	     -2.79382828	      5.71645249	     41.25793395	     -9.68804826	    -21.50738881	      0.00000000	    -40.34501121	      5.27950696	      9.08553183	    112.87961938	     -5.97214614	     55.93953625	     49.57520918	     84.17868894	     42.14149304	    -31.78044153	     30.26288065	     58.74503025	     71.54335042
     14.25000000	     24.50796082	     -9.97018715	     -3.74322117	     -0.07081732	      0.44863391	     -0.11146592	     70.16170418	      7.01113339	     -1.75403058	     51.79131719	     44.88790133	     29.20069109	      0.00000000	     68.91341554	     -2.63559871	      5.66207599	     42.09992101	     -9.56098474	    -21.38629126	      0.00000000	    -40.34787573	      5.16240928	      7.58938683	    116.72765657	     -4.98142883	     56.65432317	     49.55807888	     84.78356050	     44.82860676	    -31.88482298	     30.14418874	     59.02728507	     72.21445111
     14.26666670	     24.01778131	     -9.91119330	     -3.84050876	     -0.06995446	      0.44744597	     -0.11199946	     70.72417137	      6.87716863	     -2.03396090	     52.69859543	     46.15550272	     31.42660192	      0.00000000	     69.65806739	     -2.66758710	      5.67347899	     43.00341056	     -8.98989485	    -19.80567032	      0.00000000	    -40.45173483	      4.97317206	      6.38889539	    121.02117058	     -3.74723482	     58.86430849	     48.55981521	     85.78755887	     48.13442893	    -32.21024278	     30.69923259	     59.35691208	     73.17019613
     14.28333330	     23.32771647	     -9.79724475	     -3.60272131	     -0.05940114	      0.44660430	     -0.10967829	     71.92787378	      6.40334154	     -2.73625342	     54.27953103	     47.61452842	     33.41162520	      0.00000000	     70.99907443	     -2.23691967	      5.80811070	     44.58569805	     -8.27757701	    -20.43623110	      0.00000000	    -40.02559237	      4.97372903	      4.88847581	    125.10960798	     -2.59509553	     62.08849558	     47.39360472	     86.97087723	     51.05529702	    -32.47104968	     31.22794589	     58.84625242	     74.09309929
     14.30000000	     22.65033545	     -9.03820253	     -3.07320431	     -0.05569989	      0.43978562	     -0.11049032	     73.50633008	      4.84723485	     -2.49487639	     53.60700036	     33.21428036	     16.25949977	      0.00000000	     72.49261046	     -1.28118048	      5.01089911	     46.13794826	     -7.71074537	    -21.18579279	      0.00000000	    -39.83945126	      4.57903428	      3.04612818	    129.53800149	     -1.98474968	     64.47714396	     47.94310399	     87.72391774	     53.95705690	    -33.24834986	     31.65905213	     59.59367367	     74.72367662
     14.31666670	     21.72923543	     -8.40729397	     -2.74785221	     -0.04560608	      0.43370116	     -0.10643579	     75.11392437	      3.72759227	     -2.96009131	     54.00010774	     25.08785652	      9.14804535	      0.00000000	     74.15448294	     -0.61513127	      4.31047843	     46.95758797	     -9.20920109	    -23.22264420	      0.00000000	    -38.80038964	      3.98573329	      1.00962061	    133.00074502	     -1.44084690	     66.65651834	     48.03611331	     88.24387832	     56.80292420	    -33.93876968	     32.28448383	     59.42670321	     75.00968887
     14.33333330	     20.34930498	     -8.32527269	     -2.68617979	     -0.04252843	      0.43835157	     -0.10803110	     76.66252777	      2.88842740	     -3.83258127	     54.68836910	     20.71413458	      5.29416793	      0.00000000	     76.29015239	     -0.34020792	      4.43182275	     48.10354589	     -9.92784502	    -23.00039537	      0.00000000	    -37.61049899	      3.91707720	     -0.73715491	    135.92696439	     -0.73469152	     68.95237942	     48.72541514	     88.67949623	     59.08488754	    -34.34061293	     32.19139910	     58.51476876	     75.01029882
     14.35000000	     18.81640943	     -8.20074575	     -2.71484163	     -0.03804329	      0.43111866	     -0.10436008	     78.73836276	      2.36385161	     -5.04544404	     56.18222542	     20.26564678	      5.32723698	      0.00000000	     78.63021261	     -0.20290882	      4.52614161	     49.39849691	     -9.80665160	    -22.45779557	      0.00000000	    -36.20071834	      3.70350520	     -2.83959563	    138.50846821	      0.12083322	     70.11167134	     49.62449783	     88.86882856	     61.57195722	    -35.14472318	     32.25950425	     57.21778497	     74.94434036
     14.36666670	     17.26096865	     -8.52146582	     -3.32986127	     -0.03684856	      0.43526039	     -0.10546309	     80.53821857	      2.49039964	     -6.52215254	     57.92861303	     20.80304306	      5.84279565	      0.00000000	     80.27144290	     -0.67049982	      4.99658086	     50.11746448	     -9.63961174	    -22.25585036	      0.00000000	    -35.16489012	      3.78655649	     -4.20312604	    141.02456424	      0.87882358	     71.42058206	     51.02423622	     89.01022473	     63.34695178	    -35.67117943	     31.93826857	     56.24130766	     74.71535962
     14.38333330	     15.74354072	     -8.57142531	     -3.94342346	     -0.02882843	      0.43782513	     -0.10719618	     82.30452527	      2.39937433	     -7.49012868	     59.65931009	     22.31815733	      7.11505003	      0.00000000	     81.98311343	     -0.95442780	      5.38563164	     51.54168383	     -9.08945325	    -23.11269529	      0.00000000	    -34.18642604	      3.65015506	     -5.68952296	    143.06513804	      1.59471459	     72.39122915	     52.36812548	     89.03109761	     64.75880565	    -36.08045169	     31.18667899	     55.43225351	     74.43535425
     14.40000000	     14.63599915	     -8.67953586	     -4.60942093	     -0.03242045	      0.43378936	     -0.10897065	     83.62991355	      2.25333292	     -8.59102446	     60.87389276	     23.88940322	      8.28912532	      0.00000000	     83.44430574	     -1.19496045	      5.39970077	     52.55579934	     -7.53707590	    -22.48660396	      0.00000000	    -34.00952818	      3.61772932	     -6.84759912	    145.63022208	      2.25024658	     73.64798353	     53.33667973	     88.99734307	     66.30267736	    -36.45899324	     30.25114988	     54.86243729	     74.13536722
     14.41666670	     14.17853875	     -8.85277699	     -5.00425561	     -0.03331179	      0.43487188	     -0.10955409	     84.04048348	      2.12249891	     -9.05190594	     60.92119039	     23.86510760	      8.81272681	      0.00000000	     83.96987531	     -1.29732361	      5.33537119	     53.04453962	     -5.87084815	    -22.70632806	      0.00000000	    -35.35880552	      3.73208798	     -7.39355387	    149.95991868	      2.37981041	     76.27608156	     54.82206299	     88.53610457	     68.77835187	    -36.43736412	     29.60216206	     55.04283732	     73.71037250
